<svg width="32" height="23" viewBox="0 0 32 23" fill="none" xmlns="http://www.w3.org/2000/svg">
<path d="M10.9209 22.5078L3.43229 4.62269C2.90069 3.39146 2.36909 2.53825 1.83749 2.06304C1.30589 1.58783 0.693391 1.30703 0 1.22063V0.572613C0.0924522 0.572613 0.323583 0.561813 0.693391 0.540213C1.04009 0.518613 1.29433 0.507812 1.45612 0.507812C2.26508 0.507812 3.09715 0.594214 3.95233 0.767016C4.80751 0.918219 5.61647 1.28543 6.3792 1.86864C7.14193 2.45185 7.78909 3.36986 8.32069 4.62269L13.0011 15.8009L16.1213 7.50634L14.9079 4.62269C14.3763 3.39146 13.7985 2.53825 13.1744 2.06304C12.5735 1.58783 11.9263 1.30703 11.2329 1.22063V0.572613C11.3254 0.572613 11.5334 0.561813 11.857 0.540213C12.1806 0.518613 12.4233 0.507812 12.585 0.507812C13.394 0.507812 14.2261 0.594214 15.0813 0.767016C15.9364 0.939819 16.7454 1.31783 17.5081 1.90104C18.2709 2.46265 18.918 3.36986 19.4496 4.62269L24.4074 16.4165L30.3359 0.831818H32L23.7833 22.5078H22.3965L17.0574 9.80678L12.3077 22.5078H10.9209Z" fill="white"/>
</svg>
